# xmcd
#
# Track frame offsets: 
#        150
#        14383
#        28669
#        43049
#        56838
#        69592
#        83657
#        97481
#        110062
#        124365
#        138525
#        151795
#        165112
#        177764
#        191470
#        205218
#        219175
#        232025
#        245701
#        260954
#        273783
#        287897
#
# Disc length: 4072 seconds
#
# Revision: 0
# Processed by: cddbd v1.5.2PL0 Copyright (c) Steve Scherf et al.
# Submitted via: ExactAudioCopyFreeDBPlugin 1.0
#
DISCID=490fe616
DTITLE=Josie Miles - Complete Recorded Works Vol. 1 (1922-1924)
DYEAR=1996
DGENRE=Blues
TTITLE0=Please Don't Tickle Me Dear Blues
TTITLE1=When You're Crazy Over Daddy
TTITLE2=If You Want to Keep Your Daddy Home
TTITLE3=You're Foolin' with the Wrong Gal Now
TTITLE4=When I Dream of Old Tennessee Blues
TTITLE5=I Don't Want You (If You Don't Want Me)
TTITLE6=Low Down 'Bama Blues
TTITLE7=Love Me in Your Old Time Way
TTITLE8=Baby's Got the Blues
TTITLE9=Kansas City Man Blues
TTITLE10=He's Never Gonna Throw Me Down
TTITLE11=Graveyard Dream Blues
TTITLE12=He Went Away and Left Me Blues
TTITLE13=I Want My Sweet Daddy Now
TTITLE14=He's My Man, Your Man (Somebody Else's Too)
TTITLE15=Awful Moanin' Blues
TTITLE16=War Horse Mamma
TTITLE17=You Don't Know My Mind Blues
TTITLE18=Pipe Dream Blues
TTITLE19=Lovin' Henry Blues
TTITLE20=Freight Train Blues
TTITLE21=Sweet Man Joe
EXTD=
EXTT0=
EXTT1=
EXTT2=
EXTT3=
EXTT4=
EXTT5=
EXTT6=
EXTT7=
EXTT8=
EXTT9=
EXTT10=
EXTT11=
EXTT12=
EXTT13=
EXTT14=
EXTT15=
EXTT16=
EXTT17=
EXTT18=
EXTT19=
EXTT20=
EXTT21=
PLAYORDER=
